
        <svg xmlns="http://www.w3.org/2000/svg" xmlns:xlink="http://www.w3.org/1999/xlink" version="1.1" width="3171.4285714285716" height="2841.4873930023764" viewBox="0 0 3171.4285714285716 2841.4873930023764">
			
			<g transform="scale(8.571428571428571) translate(10, 10)">
				<defs id="SvgjsDefs3906"/><g id="SvgjsG3907" featureKey="dZL0lc-0" transform="matrix(53.35041236854287,0,0,53.35041236854287,41.95730877184092,-50.84294665050346)" fill="#fff"><g xmlns="http://www.w3.org/2000/svg"><g><polygon points="2.499,1.705 4.062,2.605 4.062,1.854 2.498,0.953 0.938,1.855 0.938,2.607   "/></g><g><polygon points="3.812,3.51 4.062,3.363 4.062,2.902 2.498,2 0.938,2.902 0.938,3.365 1.188,3.51 2.498,2.752       "/></g><g><polygon points="2.499,3.818 2.896,4.047 3.548,3.672 2.498,3.066 1.452,3.672 2.104,4.047   "/></g></g></g><g id="SvgjsG3908" featureKey="u029BI-0" transform="matrix(4.269334206398678,0,0,4.269334206398678,-4.867040934221178,152.29690063043483)" fill="#fff"><path d="M1.14 7.76 l9.1 0 l0 2.78 l-6.1 0 l0 1.96 l4.9 0 l0 2.78 l-4.9 0 l0 4.72 l-3 0 l0 -12.24 z M17.4 17.32 c2.18 0 3.3 -1.4 3.3 -3.44 c0 -2.16 -1.2 -3.44 -3.3 -3.44 c-2.2 0 -3.3 1.4 -3.3 3.44 c0 2.12 1.22 3.44 3.3 3.44 z M17.4 20.1 c-3.76 0 -6.3 -2.56 -6.3 -6.22 c0 -3.78 2.66 -6.22 6.3 -6.22 c3.78 0 6.3 2.54 6.3 6.22 c0 3.8 -2.64 6.22 -6.3 6.22 z M34.66 17.22 l0 2.78 l-9.1 0 l0 -12.24 l3 0 l0 9.46 l6.1 0 z M45.28 17.22 l0 2.78 l-9.1 0 l0 -12.24 l3 0 l0 9.46 l6.1 0 z M46.78 7.76 l3 0 l0 12.24 l-3 0 l0 -12.24 z M61.66 16.58 l0 3.08 c-1.24 0.34 -2.48 0.48 -3.76 0.48 c-3.76 0 -6.28 -2.58 -6.28 -6.24 c0 -3.76 2.62 -6.24 6.26 -6.24 c1.26 0 2.58 0.1 3.78 0.48 l0 3.08 c-0.98 -0.48 -2.52 -0.66 -3.6 -0.66 c-2.44 0 -3.44 1 -3.44 3.32 c0 2.46 1.18 3.36 3.46 3.36 c1.02 0 2.68 -0.16 3.58 -0.66 z M72.5 17.22 l0 2.78 l-9.1 0 l0 -12.24 l3 0 l0 9.46 l6.1 0 z M74.02 7.76 l9.1 0 l0 2.78 l-6.1 0 l0 1.96 l4.9 0 l0 2.78 l-4.9 0 l0 1.94 l6.1 0 l0 2.78 l-9.1 0 l0 -12.24 z"/></g><g id="SvgjsG3909" featureKey="u029BI-1" transform="matrix(2.8280544241674765,0,0,2.8280544241674765,-3.1674206314224294,226.33710489092542)" fill="#fff"><path d="M1.12 7.76 l3 0 l0 12.24 l-3 0 l0 -12.24 z M14.18 7.76 l3 0 l0 12.24 l-3 0 l-4.8 -7.16 l0 7.16 l-3 0 l0 -12.24 l3 0 l4.8 7.16 l0 -7.16 z M18.76 7.76 l10.2 0 l0 2.78 l-3.6 0 l0 9.46 l-3 0 l0 -9.46 l-3.6 0 l0 -2.78 z M30.52 7.76 l9.1 0 l0 2.78 l-6.1 0 l0 1.96 l4.9 0 l0 2.78 l-4.9 0 l0 1.94 l6.1 0 l0 2.78 l-9.1 0 l0 -12.24 z M50.42 17.22 l0 2.78 l-9.1 0 l0 -12.24 l3 0 l0 9.46 l6.1 0 z M61.04 17.22 l0 2.78 l-9.1 0 l0 -12.24 l3 0 l0 9.46 l6.1 0 z M62.54 7.76 l3 0 l0 12.24 l-3 0 l0 -12.24 z M78.62 12.5 l0 6.8 c-1.42 0.54 -3.2 0.84 -4.72 0.84 c-3.9 0 -6.52 -2.34 -6.52 -6.2 c0 -4.22 3.14 -6.28 6.98 -6.28 c0.26 0 0.54 0 0.86 0.02 c0.3 0.02 0.62 0.06 0.96 0.08 c0.62 0.08 1.24 0.16 1.84 0.34 l0 3.06 c-0.22 -0.1 -0.46 -0.18 -0.74 -0.26 c-0.3 -0.06 -0.6 -0.12 -0.92 -0.18 c-0.64 -0.12 -1.32 -0.16 -1.98 -0.16 c-2.54 0 -4 0.78 -4 3.38 c0 2.54 1.34 3.3 3.62 3.3 c0.24 0 0.5 -0.02 0.78 -0.04 c0.26 -0.02 0.54 -0.04 0.84 -0.06 l0 -1.86 l-2.6 0 l0 -2.78 l5.6 0 z M80.52 7.76 l9.1 0 l0 2.78 l-6.1 0 l0 1.96 l4.9 0 l0 2.78 l-4.9 0 l0 1.94 l6.1 0 l0 2.78 l-9.1 0 l0 -12.24 z M99.12 7.76 l3 0 l0 12.24 l-3 0 l-4.8 -7.16 l0 7.16 l-3 0 l0 -12.24 l3 0 l4.8 7.16 l0 -7.16 z M114.04 16.58 l0 3.08 c-1.24 0.34 -2.48 0.48 -3.76 0.48 c-3.76 0 -6.28 -2.58 -6.28 -6.24 c0 -3.76 2.62 -6.24 6.26 -6.24 c1.26 0 2.58 0.1 3.78 0.48 l0 3.08 c-0.98 -0.48 -2.52 -0.66 -3.6 -0.66 c-2.44 0 -3.44 1 -3.44 3.32 c0 2.46 1.18 3.36 3.46 3.36 c1.02 0 2.68 -0.16 3.58 -0.66 z M115.78 7.76 l9.1 0 l0 2.78 l-6.1 0 l0 1.96 l4.9 0 l0 2.78 l-4.9 0 l0 1.94 l6.1 0 l0 2.78 l-9.1 0 l0 -12.24 z"/></g><g id="SvgjsG3910" featureKey="cvDMLi-0" transform="matrix(0.4713790506054587,0,0,0.4713790506054587,69.84221271990015,301.935359704403)" fill="#fff"><path d="M13.62 20.22 c-0.10666 0.05334 -0.219922 0.08 -0.339922 0.08 c-0.17334 0 -0.33668 -0.04666 -0.49002 -0.14 s-0.26334 -0.22668 -0.33 -0.40002 l-1.58 -3.72 l-7.26 0 l-1.58 3.72 c-0.09334 0.22666 -0.25334 0.38666 -0.48 0.48 s-0.45332 0.08668 -0.67998 -0.01998 c-0.22666 -0.09334 -0.38666 -0.25334 -0.48 -0.48 s-0.08668 -0.45332 0.01998 -0.67998 l1.8 -4.26 l4.22 -9.88 c0.06666 -0.17334 0.17332 -0.30668 0.31998 -0.40002 s0.31332 -0.14 0.49998 -0.14 c0.17334 0 0.33334 0.04666 0.48 0.14 s0.25332 0.22668 0.31998 0.40002 c1.01334 2.37334 2.02 4.73 3.02 7.07 s2.00666 4.69666 3.02 7.07 c0.09334 0.22666 0.09334 0.45332 0 0.67998 s-0.25334 0.38666 -0.48 0.48 z M7.26008 7.54 l-2.88 6.72 l5.74 0 z M32.196 20.3 c-0.25334 0 -0.46668 -0.08666 -0.64002 -0.26 s-0.26 -0.38 -0.26 -0.62 l0 -14.02 c0 -0.24 0.08666 -0.44666 0.26 -0.62 s0.38668 -0.26 0.64002 -0.26 c0.24 0 0.44666 0.08666 0.62 0.26 s0.26 0.38 0.26 0.62 l0 14.02 c0 0.24 -0.08666 0.44666 -0.26 0.62 s-0.38 0.26 -0.62 0.26 z M78.108 13.36 l-2.64 -0.000039 l0 6.06 c0 0.24 -0.08666 0.44666 -0.26 0.62 s-0.38 0.26 -0.62 0.26 c-0.25334 0 -0.46668 -0.08666 -0.64002 -0.26 s-0.26 -0.38 -0.26 -0.62 l0 -14.02 c0 -0.24 0.08666 -0.44666 0.26 -0.62 s0.38668 -0.26 0.64002 -0.26 l3.52 0 c0.61334 0 1.19 0.11666 1.73 0.35 s1.01 0.55 1.41 0.95 s0.71666 0.86666 0.95 1.4 s0.35 1.10668 0.35 1.72002 s-0.11666 1.18668 -0.35 1.72002 s-0.55 1 -0.95 1.4 s-0.87 0.71666 -1.41 0.95 s-1.11666 0.35 -1.73 0.35 z M78.108 6.27996 l-2.64 0 l0 5.3 l2.64 0 c0.36 0 0.70334 -0.07 1.03 -0.21 s0.61 -0.33 0.85 -0.57 s0.43 -0.52 0.57 -0.84 s0.21 -0.66 0.21 -1.02 s-0.07 -0.70334 -0.21 -1.03 s-0.33 -0.61 -0.57 -0.85 s-0.52334 -0.43 -0.85 -0.57 s-0.67 -0.21 -1.03 -0.21 z M107.144 20.3 c-1.09334 0 -2.12 -0.20666 -3.08 -0.62 s-1.79666 -0.97668 -2.51 -1.69002 s-1.27668 -1.55 -1.69002 -2.51 s-0.62 -1.98666 -0.62 -3.08 c0 -1.08 0.20666 -2.1 0.62 -3.06 s0.97668 -1.79666 1.69002 -2.51 s1.55 -1.27668 2.51 -1.69002 s1.98666 -0.62 3.08 -0.62 c1.08 0 2.1 0.20666 3.06 0.62 s1.79666 0.97668 2.51 1.69002 s1.27668 1.55 1.69002 2.51 s0.62 1.98 0.62 3.06 c0 1.09334 -0.20666 2.12 -0.62 3.08 s-0.97668 1.79666 -1.69002 2.51 s-1.55 1.27668 -2.51 1.69002 s-1.98 0.62 -3.06 0.62 z M107.144 6.28 c-0.84 0 -1.63334 0.16 -2.38 0.48 s-1.4 0.75666 -1.96 1.31 s-1 1.20334 -1.32 1.95 s-0.48 1.54 -0.48 2.38 s0.16 1.63334 0.48 2.38 s0.76 1.4 1.32 1.96 s1.21334 1 1.96 1.32 s1.54 0.48 2.38 0.48 s1.63334 -0.16 2.38 -0.48 s1.39666 -0.76 1.95 -1.32 s0.99 -1.21334 1.31 -1.96 s0.48 -1.54 0.48 -2.38 s-0.16 -1.63334 -0.48 -2.38 s-0.75666 -1.39666 -1.31 -1.95 s-1.20334 -0.99 -1.95 -1.31 s-1.54 -0.48 -2.38 -0.48 z M151.02 12.22 c-0.32 0.85334 -0.6333 1.69668 -0.93996 2.53002 s-0.59 1.59334 -0.85 2.28 s-0.47666 1.27 -0.65 1.75 s-0.28668 0.79334 -0.34002 0.94 c-0.06666 0.17334 -0.17666 0.31334 -0.33 0.42 s-0.32334 0.16 -0.51 0.16 s-0.35666 -0.05334 -0.51 -0.16 s-0.26334 -0.24666 -0.33 -0.42 l-4.36 -11.88 l-4.38 11.88 c-0.06666 0.17334 -0.17332 0.31334 -0.31998 0.42 s-0.31332 0.16 -0.49998 0.16 s-0.35666 -0.05334 -0.51 -0.16 s-0.26334 -0.24666 -0.33 -0.42 c-0.05334 -0.14666 -0.17 -0.46 -0.35 -0.94 s-0.39666 -1.06334 -0.65 -1.75 s-0.53334 -1.44666 -0.84 -2.28 s-0.62 -1.67668 -0.94 -2.53002 c-0.30666 -0.84 -0.61 -1.66334 -0.91 -2.47 s-0.56666 -1.53332 -0.8 -2.17998 s-0.42 -1.18 -0.56 -1.6 s-0.21 -0.65666 -0.21 -0.71 c0 -0.24 0.08666 -0.44666 0.26 -0.62 s0.38 -0.26 0.62 -0.26 c0.18666 0 0.35666 0.05334 0.51 0.16 s0.26334 0.24666 0.33 0.42 l4.38 11.88 l4.36 -11.88 c0.06666 -0.17334 0.17666 -0.31334 0.33 -0.42 s0.32334 -0.16 0.51 -0.16 s0.35332 0.05334 0.49998 0.16 s0.25332 0.24666 0.31998 0.42 l4.38 11.88 l4.36 -11.88 c0.06666 -0.17334 0.17666 -0.31334 0.33 -0.42 s0.32334 -0.16 0.51 -0.16 c0.24 0 0.44666 0.08666 0.62 0.26 s0.26 0.38 0.26 0.62 c0 0.05334 -0.07 0.29 -0.21 0.71 s-0.32666 0.95334 -0.56 1.6 s-0.49668 1.37332 -0.79002 2.17998 s-0.59334 1.63 -0.9 2.47 z M177.556 20.3 l-6.88 -0.00002 c-0.25334 0 -0.46668 -0.08666 -0.64002 -0.26 s-0.26 -0.38 -0.26 -0.62 l0 -0.04 l0 -0.04 l0 -13.94 c0 -0.24 0.08666 -0.44666 0.26 -0.62 s0.38668 -0.26 0.64002 -0.26 l6.88 0 c0.25334 0 0.46668 0.08666 0.64002 0.26 s0.26 0.38 0.26 0.62 c0 0.25334 -0.08666 0.46334 -0.26 0.63 s-0.38668 0.25 -0.64002 0.25 l-6 0 l0 5.1 l5.06 0 c0.24 0 0.44666 0.08334 0.62 0.25 s0.26 0.37666 0.26 0.63 c0 0.24 -0.08666 0.44666 -0.26 0.62 s-0.38 0.26 -0.62 0.26 l-5.06 0 l0 5.38 l6 0 c0.25334 0 0.46668 0.08666 0.64002 0.26 s0.26 0.38668 0.26 0.64002 c0 0.24 -0.08666 0.44666 -0.26 0.62 s-0.38668 0.26 -0.64002 0.26 z M200.172 13.36 l-0.24 -0.000039 l0.26 -0.46 l3.62 6.06 c0.08 0.14666 0.12 0.3 0.12 0.46 c0 0.24 -0.08666 0.44666 -0.26 0.62 s-0.38 0.26 -0.62 0.26 c-0.16 0 -0.31 -0.04 -0.45 -0.12 s-0.25 -0.18666 -0.33 -0.32 l-3.88 -6.5 l-0.86 0 l0 6.06 c0 0.24 -0.08666 0.44666 -0.26 0.62 s-0.38 0.26 -0.62 0.26 c-0.25334 0 -0.46668 -0.08666 -0.64002 -0.26 s-0.26 -0.38 -0.26 -0.62 l0 -14.02 c0 -0.24 0.08666 -0.44666 0.26 -0.62 s0.38668 -0.26 0.64002 -0.26 l3.52 0 c0.61334 0 1.19 0.11666 1.73 0.35 s1.01 0.55 1.41 0.95 s0.71666 0.86666 0.95 1.4 s0.35 1.10668 0.35 1.72002 s-0.11666 1.18668 -0.35 1.72002 s-0.55 1 -0.95 1.4 s-0.87 0.71666 -1.41 0.95 s-1.11666 0.35 -1.73 0.35 z M200.172 6.27996 l-2.64 0 l0 5.3 l2.64 0 c0.36 0 0.70334 -0.07 1.03 -0.21 s0.61 -0.33 0.85 -0.57 s0.43 -0.52 0.57 -0.84 s0.21 -0.66 0.21 -1.02 s-0.07 -0.70334 -0.21 -1.03 s-0.33 -0.61 -0.57 -0.85 s-0.52334 -0.43 -0.85 -0.57 s-0.67 -0.21 -1.03 -0.21 z M229.528 20.3 l-6.88 -0.00002 c-0.25334 0 -0.46668 -0.08666 -0.64002 -0.26 s-0.26 -0.38 -0.26 -0.62 l0 -0.04 l0 -0.04 l0 -13.94 c0 -0.24 0.08666 -0.44666 0.26 -0.62 s0.38668 -0.26 0.64002 -0.26 l6.88 0 c0.25334 0 0.46668 0.08666 0.64002 0.26 s0.26 0.38 0.26 0.62 c0 0.25334 -0.08666 0.46334 -0.26 0.63 s-0.38668 0.25 -0.64002 0.25 l-6 0 l0 5.1 l5.06 0 c0.24 0 0.44666 0.08334 0.62 0.25 s0.26 0.37666 0.26 0.63 c0 0.24 -0.08666 0.44666 -0.26 0.62 s-0.38 0.26 -0.62 0.26 l-5.06 0 l0 5.38 l6 0 c0.25334 0 0.46668 0.08666 0.64002 0.26 s0.26 0.38668 0.26 0.64002 c0 0.24 -0.08666 0.44666 -0.26 0.62 s-0.38668 0.26 -0.64002 0.26 z M253.524 20.3 l-4.92006 -0.000039 c-0.16 0 -0.31334 -0.04666 -0.46 -0.14 s-0.25332 -0.21334 -0.31998 -0.36 c-0.12 -0.21334 -0.13334 -0.45334 -0.04 -0.72 l0 -13.68 c0 -0.24 0.08666 -0.44666 0.26 -0.62 s0.38668 -0.26 0.64002 -0.26 l4.82 0 c1.05334 0 2.01334 0.22666 2.88 0.68 s1.60666 1.04668 2.22 1.78002 s1.08668 1.56668 1.42002 2.50002 s0.5 1.88 0.5 2.84 c0 1.18666 -0.20334 2.27 -0.61 3.25 s-0.94 1.82 -1.6 2.52 s-1.41 1.24334 -2.25 1.63 s-1.68666 0.58 -2.54 0.58 z M253.50394 6.27996 l-3.94 -0.000078 l0 12.26 l3.96 0 c0.76 0 1.45666 -0.18334 2.09 -0.55 s1.18334 -0.84332 1.65 -1.42998 s0.83 -1.25332 1.09 -1.99998 s0.39 -1.49332 0.39 -2.23998 c0 -0.76 -0.12666 -1.50334 -0.38 -2.23 s-0.61 -1.37332 -1.07 -1.93998 s-1.01334 -1.02 -1.66 -1.36 s-1.35666 -0.51 -2.13 -0.51 z M312.656 20.22 c-0.10666 0.05334 -0.219922 0.08 -0.339922 0.08 c-0.17334 0 -0.33668 -0.04666 -0.49002 -0.14 s-0.26334 -0.22668 -0.33 -0.40002 l-1.58 -3.72 l-7.26 0 l-1.58 3.72 c-0.09334 0.22666 -0.25334 0.38666 -0.48 0.48 s-0.45332 0.08668 -0.67998 -0.01998 c-0.22666 -0.09334 -0.38666 -0.25334 -0.48 -0.48 s-0.08668 -0.45332 0.01998 -0.67998 l1.8 -4.26 l4.22 -9.88 c0.06666 -0.17334 0.17332 -0.30668 0.31998 -0.40002 s0.31332 -0.14 0.49998 -0.14 c0.17334 0 0.33334 0.04666 0.48 0.14 s0.25332 0.22668 0.31998 0.40002 c1.01334 2.37334 2.02 4.73 3.02 7.07 s2.00666 4.69666 3.02 7.07 c0.09334 0.22666 0.09334 0.45332 0 0.67998 s-0.25334 0.38666 -0.48 0.48 z M306.29608 7.54 l-2.88 6.72 l5.74 0 z M336.412 20.3 c-0.84 0 -1.626622 -0.160039 -2.35996 -0.48004 s-1.37668 -0.75334 -1.93002 -1.3 s-0.99 -1.19 -1.31 -1.93 s-0.48 -1.53 -0.48 -2.37 l0 -8.82 c0 -0.24 0.08666 -0.44666 0.26 -0.62 s0.38668 -0.26 0.64002 -0.26 c0.24 0 0.44666 0.08666 0.62 0.26 s0.26 0.38 0.26 0.62 l0 8.82 c0 0.6 0.11334 1.16 0.34 1.68 s0.53332 0.97334 0.91998 1.36 s0.84332 0.69332 1.36998 0.91998 s1.08332 0.34 1.66998 0.34 c0.6 0 1.16 -0.11334 1.68 -0.34 s0.97666 -0.53332 1.37 -0.91998 s0.70334 -0.84332 0.93 -1.36998 s0.34 -1.08332 0.34 -1.66998 l0 -8.82 c0 -0.24 0.08666 -0.44666 0.26 -0.62 s0.38 -0.26 0.62 -0.26 c0.25334 0 0.46668 0.08666 0.64002 0.26 s0.26 0.38 0.26 0.62 l0 8.82 c0 0.84 -0.16 1.63 -0.48 2.37 s-0.75666 1.38334 -1.31 1.93 s-1.2 0.98 -1.94 1.3 s-1.53 0.48 -2.37 0.48 z M366.768 20.3 l-4.92006 -0.000039 c-0.16 0 -0.31334 -0.04666 -0.46 -0.14 s-0.25332 -0.21334 -0.31998 -0.36 c-0.12 -0.21334 -0.13334 -0.45334 -0.04 -0.72 l0 -13.68 c0 -0.24 0.08666 -0.44666 0.26 -0.62 s0.38668 -0.26 0.64002 -0.26 l4.82 0 c1.05334 0 2.01334 0.22666 2.88 0.68 s1.60666 1.04668 2.22 1.78002 s1.08668 1.56668 1.42002 2.50002 s0.5 1.88 0.5 2.84 c0 1.18666 -0.20334 2.27 -0.61 3.25 s-0.94 1.82 -1.6 2.52 s-1.41 1.24334 -2.25 1.63 s-1.68666 0.58 -2.54 0.58 z M366.74794 6.27996 l-3.94 -0.000078 l0 12.26 l3.96 0 c0.76 0 1.45666 -0.18334 2.09 -0.55 s1.18334 -0.84332 1.65 -1.42998 s0.83 -1.25332 1.09 -1.99998 s0.39 -1.49332 0.39 -2.23998 c0 -0.76 -0.12666 -1.50334 -0.38 -2.23 s-0.61 -1.37332 -1.07 -1.93998 s-1.01334 -1.02 -1.66 -1.36 s-1.35666 -0.51 -2.13 -0.51 z M392.684 20.3 c-0.25334 0 -0.46668 -0.08666 -0.64002 -0.26 s-0.26 -0.38 -0.26 -0.62 l0 -14.02 c0 -0.24 0.08666 -0.44666 0.26 -0.62 s0.38668 -0.26 0.64002 -0.26 c0.24 0 0.44666 0.08666 0.62 0.26 s0.26 0.38 0.26 0.62 l0 14.02 c0 0.24 -0.08666 0.44666 -0.26 0.62 s-0.38 0.26 -0.62 0.26 z M419.62 6.28 l-3.23998 0 l0 13.14 c0 0.24 -0.08666 0.44666 -0.26 0.62 s-0.38 0.26 -0.62 0.26 c-0.25334 0 -0.46668 -0.08666 -0.64002 -0.26 s-0.26 -0.38 -0.26 -0.62 l0 -13.14 l-3.24 0 c-0.24 0 -0.44666 -0.08334 -0.62 -0.25 s-0.26 -0.37666 -0.26 -0.63 c0 -0.24 0.08666 -0.44666 0.26 -0.62 s0.38 -0.26 0.62 -0.26 l8.26 0 c0.24 0 0.44666 0.08666 0.62 0.26 s0.26 0.38 0.26 0.62 c0 0.25334 -0.08666 0.46334 -0.26 0.63 s-0.38 0.25 -0.62 0.25 z M441.396 20.3 c-0.61334 0 -1.18668 -0.11668 -1.72002 -0.35002 s-1 -0.55 -1.4 -0.95 s-0.71666 -0.86666 -0.95 -1.4 s-0.35 -1.10668 -0.35 -1.72002 c0 -0.25334 0.08666 -0.46668 0.26 -0.64002 s0.38668 -0.26 0.64002 -0.26 c0.24 0 0.44666 0.08666 0.62 0.26 s0.26 0.38668 0.26 0.64002 c0 0.36 0.07 0.7 0.21 1.02 s0.33 0.6 0.57 0.84 s0.52 0.43 0.84 0.57 s0.66 0.21 1.02 0.21 s0.70334 -0.07 1.03 -0.21 s0.61 -0.33 0.85 -0.57 s0.43 -0.52 0.57 -0.84 s0.21 -0.66 0.21 -1.02 c0 -0.44 -0.08666 -0.80334 -0.26 -1.09 s-0.41334 -0.53666 -0.72 -0.75 c-0.14666 -0.10666 -0.31332 -0.20332 -0.49998 -0.28998 s-0.38 -0.17666 -0.58 -0.27 c-0.2 -0.08 -0.40666 -0.16 -0.62 -0.24 s-0.43334 -0.16 -0.66 -0.24 c-0.44 -0.16 -0.88334 -0.34 -1.33 -0.54 s-0.84666 -0.45 -1.2 -0.75 s-0.64334 -0.67334 -0.87 -1.12 s-0.34 -0.99666 -0.34 -1.65 c0 -0.61334 0.11666 -1.18668 0.35 -1.72002 s0.55 -1 0.95 -1.4 s0.86666 -0.71666 1.4 -0.95 s1.10668 -0.35 1.72002 -0.35 s1.19 0.11666 1.73 0.35 s1.01 0.55 1.41 0.95 s0.71666 0.86666 0.95 1.4 s0.35 1.10668 0.35 1.72002 c0 0.24 -0.08666 0.44666 -0.26 0.62 s-0.38668 0.26 -0.64002 0.26 c-0.24 0 -0.44666 -0.08666 -0.62 -0.26 s-0.26 -0.38 -0.26 -0.62 c0 -0.36 -0.07 -0.70334 -0.21 -1.03 s-0.33 -0.61 -0.57 -0.85 s-0.52334 -0.43 -0.85 -0.57 s-0.67 -0.21 -1.03 -0.21 s-0.7 0.07 -1.02 0.21 s-0.6 0.33 -0.84 0.57 s-0.43 0.52334 -0.57 0.85 s-0.21 0.67 -0.21 1.03 c0 0.4 0.08334 0.73334 0.25 1 s0.40332 0.5 0.70998 0.7 c0.32 0.2 0.68 0.38 1.08 0.54 l0.64 0.24 l0.66 0.24 c0.44 0.16 0.88334 0.34334 1.33 0.55 s0.84666 0.46666 1.2 0.78 s0.64334 0.70334 0.87 1.17 s0.34 1.04 0.34 1.72 c0 0.61334 -0.11666 1.18668 -0.35 1.72002 s-0.55 1 -0.95 1.4 s-0.87 0.71666 -1.41 0.95 s-1.11666 0.35 -1.73 0.35 z"/></g>
			</g>
		</svg>
	